<?xml version="1.0" standalone="no"?>
<!DOCTYPE svg PUBLIC "-//W3C//DTD SVG 20010904//EN"
 "http://www.w3.org/TR/2001/REC-SVG-20010904/DTD/svg10.dtd">
<svg version="1.0" xmlns="http://www.w3.org/2000/svg"
 width="300.000000pt" height="262.000000pt" viewBox="0 0 300.000000 262.000000"
 preserveAspectRatio="xMidYMid meet">
<metadata>
Created by potrace 1.10, written by Peter Selinger 2001-2011
</metadata>
<g transform="translate(0.000000,262.000000) scale(0.100000,-0.100000)"
fill="#000000" stroke="none">
<path d="M455 2472 c-78 -38 -115 -96 -115 -182 0 -118 71 -223 317 -472 l195
-196 -106 -549 c-58 -302 -106 -558 -106 -569 0 -21 147 -174 167 -174 6 0
109 192 228 428 120 235 221 431 225 436 5 4 57 -34 117 -86 162 -141 415
-338 522 -408 l23 -15 -40 -200 -41 -200 64 -64 c41 -42 68 -62 78 -58 8 3 61
83 118 177 79 133 106 169 118 164 57 -23 103 -35 116 -30 21 7 18 52 -5 103
l-19 42 161 97 c88 54 170 105 181 115 l22 18 -67 67 -66 67 -201 -40 -200
-40 -79 111 c-97 136 -251 329 -361 453 -57 65 -77 94 -69 100 7 4 200 103
428 220 228 116 419 219 425 227 8 13 -7 33 -71 97 l-82 82 -553 -108 c-305
-59 -556 -109 -558 -111 -2 -2 -86 76 -185 174 -194 190 -286 266 -374 308
-74 35 -154 41 -207 16z"/>
</g>
</svg>
